<?xml version="1.0" encoding="utf-8"?>
<!-- Generator: Adobe Illustrator 16.0.3, SVG Export Plug-In . SVG Version: 6.00 Build 0)  -->
<!DOCTYPE svg PUBLIC "-//W3C//DTD SVG 1.1//EN" "http://www.w3.org/Graphics/SVG/1.1/DTD/svg11.dtd">
<svg version="1.1" id="Layer_1" xmlns="http://www.w3.org/2000/svg" xmlns:xlink="http://www.w3.org/1999/xlink" x="0px" y="0px"
	 width="160.653px" height="25.393px" viewBox="0 0 160.653 25.393" enable-background="new 0 0 160.653 25.393"
	 xml:space="preserve">
<g>
	<g>
		<polygon fill="#D1AD86" points="13.284,19.555 5.075,25.267 7.971,15.694 0,9.651 10,9.447 13.284,0 16.568,9.447 26.567,9.651 
			18.598,15.694 21.494,25.267 		"/>
		<polygon fill="#D1AD86" points="46.806,19.68 38.596,25.393 41.492,15.82 33.522,9.777 43.521,9.573 46.806,0.126 50.089,9.573 
			60.089,9.777 52.119,15.82 55.015,25.393 		"/>
		<polygon fill="#D1AD86" points="80.327,19.555 72.118,25.267 75.014,15.694 67.043,9.651 77.043,9.447 80.327,0 83.612,9.447 
			93.611,9.651 85.642,15.694 88.537,25.267 		"/>
		<polygon fill="#D1AD86" points="113.848,19.555 105.638,25.267 108.535,15.694 100.564,9.651 110.565,9.447 113.848,0 
			117.133,9.447 127.132,9.651 119.162,15.694 122.058,25.267 		"/>
		<polygon fill="#D1AD86" points="147.371,19.555 139.161,25.267 142.058,15.694 134.087,9.651 144.087,9.447 147.371,0 
			150.654,9.447 160.653,9.651 152.684,15.694 155.579,25.267 		"/>
	</g>
</g>
</svg>
