<?xml version="1.0" encoding="utf-8"?>
<!-- Generator: Adobe Illustrator 16.0.3, SVG Export Plug-In . SVG Version: 6.00 Build 0)  -->
<!DOCTYPE svg PUBLIC "-//W3C//DTD SVG 1.1//EN" "http://www.w3.org/Graphics/SVG/1.1/DTD/svg11.dtd">
<svg version="1.1" id="Layer_1" xmlns="http://www.w3.org/2000/svg" xmlns:xlink="http://www.w3.org/1999/xlink" x="0px" y="0px"
	 width="73.478px" height="73.478px" viewBox="0 0 73.478 73.478" enable-background="new 0 0 73.478 73.478" xml:space="preserve">
<g>
	<linearGradient id="SVGID_1_" gradientUnits="userSpaceOnUse" x1="0.1147" y1="45.1177" x2="50.1713" y2="-5.8573">
		<stop  offset="0" style="stop-color:#06B5B9"/>
		<stop  offset="1" style="stop-color:#16AA8A"/>
	</linearGradient>
	<path fill="url(#SVGID_1_)" d="M36.149,15.482c0.183,0.106,0.387,0.159,0.59,0.159c0.204,0,0.409-0.053,0.592-0.159
		c2.729-1.579,4.423-4.515,4.423-7.662c0-3.148-1.694-6.084-4.423-7.663c-0.366-0.211-0.816-0.211-1.182,0
		c-2.729,1.579-4.424,4.515-4.424,7.663C31.725,10.968,33.42,13.904,36.149,15.482z M36.739,2.585
		c1.653,1.215,2.655,3.162,2.655,5.235c0,2.072-1.002,4.02-2.655,5.234c-1.654-1.214-2.656-3.162-2.656-5.234
		C34.083,5.748,35.085,3.8,36.739,2.585z"/>
	<linearGradient id="SVGID_2_" gradientUnits="userSpaceOnUse" x1="29.0278" y1="73.5103" x2="79.0832" y2="22.5364">
		<stop  offset="0" style="stop-color:#06B5B9"/>
		<stop  offset="1" style="stop-color:#16AA8A"/>
	</linearGradient>
	<path fill="url(#SVGID_2_)" d="M37.331,57.995c-0.366-0.211-0.816-0.211-1.182,0c-2.729,1.578-4.424,4.516-4.424,7.662
		s1.695,6.082,4.424,7.662c0.183,0.105,0.387,0.159,0.59,0.159c0.204,0,0.409-0.054,0.592-0.159c2.729-1.58,4.423-4.516,4.423-7.662
		S40.06,59.573,37.331,57.995z M36.739,70.892c-1.654-1.215-2.656-3.163-2.656-5.235c0-2.071,1.002-4.021,2.656-5.235
		c1.653,1.215,2.655,3.164,2.655,5.235C39.395,67.729,38.393,69.677,36.739,70.892z"/>
	<linearGradient id="SVGID_3_" gradientUnits="userSpaceOnUse" x1="14.5693" y1="59.313" x2="64.627" y2="8.3369">
		<stop  offset="0" style="stop-color:#06B5B9"/>
		<stop  offset="1" style="stop-color:#16AA8A"/>
	</linearGradient>
	<path fill="url(#SVGID_3_)" d="M68.981,45.129c-2.128-0.249-8.078-1.188-10.011-2.512c-3.119-2.135-7.886-3.573-13.25,1.179
		l-4.835-4.835l0,0l-2.223-2.223l2.223-2.222c0-0.001,0.002-0.001,0.002-0.001l4.833-4.833c5.364,4.753,10.132,3.311,13.25,1.178
		c1.933-1.323,7.883-2.263,10.011-2.513c0.45-0.053,0.829-0.357,0.978-0.783c0.147-0.428,0.039-0.902-0.281-1.221
		c-2.248-2.25-4.393-3.751-6.387-4.727c1.828-3.629,0.756-10.023,0.608-10.831c-0.054-0.298-0.224-0.544-0.446-0.716
		c-0.008-0.01-0.019-0.018-0.028-0.029c-0.006-0.004-0.01-0.012-0.016-0.017c-0.172-0.222-0.417-0.391-0.717-0.445
		c-0.808-0.147-7.201-1.22-10.831,0.61c-0.976-1.996-2.478-4.14-4.726-6.389c-0.318-0.321-0.794-0.428-1.222-0.281
		c-0.428,0.149-0.73,0.527-0.784,0.977c-0.249,2.128-1.188,8.075-2.512,10.013c-2.133,3.118-3.573,7.886,1.179,13.25l-7.058,7.057
		l-7.056-7.059c4.751-5.363,3.31-10.13,1.177-13.248c-1.324-1.935-2.262-7.883-2.512-10.013c-0.052-0.449-0.357-0.828-0.784-0.977
		c-0.427-0.147-0.902-0.041-1.22,0.281c-2.25,2.249-3.75,4.393-4.727,6.389c-3.629-1.83-10.024-0.757-10.832-0.61
		c-0.299,0.054-0.543,0.223-0.715,0.445c-0.25,0.172-0.434,0.439-0.491,0.762c-0.146,0.808-1.221,7.2,0.609,10.831
		C8.194,22.591,6.05,24.093,3.8,26.343c-0.319,0.319-0.428,0.793-0.279,1.221c0.147,0.426,0.526,0.73,0.976,0.783
		c2.129,0.25,8.078,1.19,10.013,2.513c3.116,2.133,7.883,3.575,13.25-1.178l4.833,4.833c0,0,0,0,0,0.001l2.223,2.222l-2.223,2.223
		c0,0,0,0-0.001,0.002l-4.832,4.833c-5.364-4.752-10.132-3.312-13.25-1.179c-1.935,1.324-7.884,2.263-10.013,2.512
		c-0.449,0.053-0.829,0.358-0.976,0.783c-0.149,0.429-0.04,0.902,0.279,1.223c2.25,2.248,4.394,3.752,6.389,4.727
		c-1.83,3.629-0.755,10.022-0.609,10.832c0.054,0.301,0.225,0.551,0.453,0.723c0.172,0.244,0.436,0.424,0.753,0.482
		c0.447,0.082,2.606,0.447,5.062,0.447c1.979,0,4.148-0.243,5.77-1.061c0.975,1.996,2.476,4.142,4.727,6.392
		c0.225,0.226,0.526,0.346,0.833,0.346c0.129,0,0.261-0.021,0.387-0.065c0.427-0.147,0.732-0.526,0.784-0.977
		c0.25-2.128,1.187-8.075,2.512-10.013c2.134-3.117,3.576-7.884-1.177-13.249l7.056-7.057l7.056,7.057
		c-4.752,5.365-3.31,10.132-1.177,13.249c1.324,1.937,2.263,7.885,2.512,10.013c0.054,0.45,0.356,0.829,0.784,0.977
		c0.127,0.045,0.258,0.065,0.387,0.065c0.31,0,0.61-0.12,0.835-0.346c2.25-2.25,3.752-4.396,4.727-6.392
		c1.621,0.817,3.789,1.061,5.769,1.061c2.454,0,4.614-0.365,5.062-0.447c0.317-0.059,0.583-0.238,0.753-0.482
		c0.229-0.172,0.399-0.422,0.454-0.726c0.147-0.809,1.22-7.198-0.608-10.829c1.994-0.975,4.139-2.479,6.387-4.727
		c0.32-0.32,0.429-0.794,0.281-1.223C69.811,45.488,69.432,45.182,68.981,45.129z M57.638,28.914
		c-3.465,2.371-6.826,2.079-10.246-0.903l3.745-3.745c0.405-0.335,6.498-5.098,15.079,2.094
		C63.55,26.796,59.512,27.632,57.638,28.914z M61.679,11.801c0.422,2.778,0.549,6.981-0.586,8.925
		c-3.498-1.119-6.407-0.65-8.432,0.091c0.74-2.023,1.209-4.934,0.09-8.431C54.693,11.255,58.896,11.38,61.679,11.801z
		 M44.563,15.841c1.283-1.875,2.119-5.915,2.555-8.581c7.225,8.592,2.498,14.6,2.096,15.08l-3.746,3.748
		C42.487,22.667,42.194,19.304,44.563,15.841z M26.361,7.262c0.437,2.667,1.272,6.705,2.553,8.578
		c2.372,3.466,2.08,6.827-0.902,10.248l-3.747-3.747C23.931,21.935,19.168,15.844,26.361,7.262z M11.801,11.8
		c2.779-0.423,6.983-0.549,8.927,0.585c-1.12,3.498-0.65,6.409,0.09,8.432c-2.023-0.741-4.935-1.21-8.433-0.091
		C11.256,18.783,11.382,14.58,11.801,11.8z M15.841,28.914c-1.875-1.282-5.914-2.117-8.581-2.554
		c8.592-7.223,14.599-2.499,15.081-2.095l3.747,3.746C22.668,30.993,19.306,31.285,15.841,28.914z M15.841,44.563
		c3.465-2.371,6.826-2.078,10.248,0.902l-3.747,3.746c-0.508,0.425-6.508,5.115-15.081-2.096
		C9.928,46.68,13.967,45.846,15.841,44.563z M11.801,61.677c-0.422-2.778-0.549-6.979,0.584-8.924
		c1.495,0.479,2.885,0.669,4.143,0.669c1.683,0,3.131-0.336,4.29-0.761c-0.74,2.024-1.208,4.933-0.091,8.429
		C18.786,62.222,14.583,62.097,11.801,61.677z M28.914,57.638c-1.282,1.873-2.117,5.912-2.553,8.579
		c-7.224-8.59-2.498-14.6-2.096-15.081l3.747-3.747C30.994,50.81,31.286,54.172,28.914,57.638z M47.116,66.213
		c-0.435-2.664-1.271-6.702-2.553-8.575c-2.371-3.466-2.078-6.828,0.902-10.249l3.746,3.747
		C49.547,51.542,54.312,57.633,47.116,66.213z M61.679,61.677c-2.78,0.42-6.985,0.545-8.928-0.587
		c1.119-3.494,0.651-6.404-0.088-8.427c1.157,0.423,2.606,0.759,4.288,0.759c1.258,0,2.647-0.19,4.144-0.669
		C62.223,54.696,62.098,58.898,61.679,61.677z M51.137,49.213l-3.745-3.748c3.42-2.98,6.782-3.273,10.246-0.902
		c1.874,1.283,5.915,2.117,8.581,2.553C57.628,54.342,51.618,49.616,51.137,49.213z"/>
	<linearGradient id="SVGID_4_" gradientUnits="userSpaceOnUse" x1="29.293" y1="73.769" x2="79.3485" y2="22.7951">
		<stop  offset="0" style="stop-color:#06B5B9"/>
		<stop  offset="1" style="stop-color:#16AA8A"/>
	</linearGradient>
	<path fill="url(#SVGID_4_)" d="M73.319,36.148c-1.579-2.728-4.514-4.423-7.662-4.423c-3.146,0-6.084,1.695-7.661,4.423
		c-0.212,0.364-0.212,0.815,0,1.181c1.577,2.729,4.516,4.425,7.661,4.425c3.148,0,6.084-1.696,7.662-4.425
		C73.53,36.963,73.53,36.512,73.319,36.148z M65.657,39.394c-2.071,0-4.02-1.002-5.235-2.655c1.216-1.653,3.164-2.656,5.235-2.656
		c2.072,0,4.021,1.003,5.235,2.656C69.678,38.392,67.729,39.394,65.657,39.394z"/>
	<linearGradient id="SVGID_5_" gradientUnits="userSpaceOnUse" x1="-0.1514" y1="44.8579" x2="49.9053" y2="-6.1173">
		<stop  offset="0" style="stop-color:#06B5B9"/>
		<stop  offset="1" style="stop-color:#16AA8A"/>
	</linearGradient>
	<path fill="url(#SVGID_5_)" d="M15.483,37.329c0.212-0.366,0.212-0.816,0-1.181c-1.579-2.728-4.515-4.423-7.662-4.423
		s-6.083,1.695-7.663,4.423c-0.211,0.364-0.211,0.815,0,1.181c1.579,2.729,4.516,4.425,7.663,4.425
		C10.969,41.753,13.905,40.057,15.483,37.329z M2.586,36.739c1.215-1.653,3.163-2.656,5.235-2.656c2.073,0,4.02,1.003,5.235,2.656
		c-1.215,1.653-3.163,2.655-5.235,2.655C5.75,39.394,3.801,38.392,2.586,36.739z"/>
</g>
</svg>
