<?xml version="1.0" encoding="utf-8"?>
<!-- Generator: Adobe Illustrator 16.0.3, SVG Export Plug-In . SVG Version: 6.00 Build 0)  -->
<!DOCTYPE svg PUBLIC "-//W3C//DTD SVG 1.1//EN" "http://www.w3.org/Graphics/SVG/1.1/DTD/svg11.dtd">
<svg version="1.1" id="Layer_1" xmlns="http://www.w3.org/2000/svg" xmlns:xlink="http://www.w3.org/1999/xlink" x="0px" y="0px"
	 width="128.109px" height="132.619px" viewBox="0 0 128.109 132.619" enable-background="new 0 0 128.109 132.619"
	 xml:space="preserve">
<g id="Layer_1_1_" display="none">
	<g display="inline">
		
			<linearGradient id="SVGID_1_" gradientUnits="userSpaceOnUse" x1="-173.7429" y1="-266.6865" x2="-79.7065" y2="-360.723" gradientTransform="matrix(1 0 0 -1 194 -240.7617)">
			<stop  offset="0" style="stop-color:#4B28DB"/>
			<stop  offset="1" style="stop-color:#3552FF"/>
		</linearGradient>
		<path fill="url(#SVGID_1_)" d="M50.151,35.319c-0.813,0.814-2.134,0.814-2.947,0c-0.813-0.814-0.813-2.134,0-2.948l15.658-15.658
			c0.813-0.813,2.135-0.813,2.946,0l15.657,15.658c0.813,0.814,0.813,2.134,0,2.948c-0.813,0.814-2.134,0.814-2.945,0L64.336,21.135
			L50.151,35.319L50.151,35.319z M28.201,66.493c-1.151,0-2.084-0.934-2.084-2.084c0-1.15,0.933-2.084,2.084-2.084
			c8.37,0,15.979,3.423,21.494,8.938c5.516,5.516,8.938,13.123,8.938,21.494v21.275c0,1.152-0.933,2.084-2.084,2.084
			c-1.149,0-2.085-0.932-2.085-2.084V92.756c0-7.219-2.955-13.786-7.716-18.546C41.988,69.45,35.42,66.493,28.201,66.493
			L28.201,66.493z M100.471,62.324c1.15,0,2.084,0.934,2.084,2.084c0,1.15-0.934,2.084-2.084,2.084
			c-7.221,0-13.785,2.956-18.548,7.718c-4.761,4.762-7.718,11.327-7.718,18.545v21.275c0,1.152-0.934,2.084-2.084,2.084
			c-1.148,0-2.084-0.932-2.084-2.084V92.756c0-8.371,3.423-15.979,8.938-21.494S92.101,62.324,100.471,62.324L100.471,62.324z
			 M66.42,114.031c0,1.151-0.934,2.084-2.084,2.084c-1.149,0-2.085-0.933-2.085-2.084V28.244c0-1.151,0.936-2.084,2.085-2.084
			c1.15,0,2.084,0.933,2.084,2.084V114.031L66.42,114.031z M35.246,78.592c0.813,0.814,0.813,2.134,0,2.948
			c-0.813,0.813-2.134,0.813-2.947,0L16.641,65.882c-0.813-0.814-0.813-2.134,0-2.948l15.656-15.658
			c0.813-0.814,2.135-0.814,2.947,0c0.813,0.814,0.813,2.134,0,2.948L21.062,64.408L35.246,78.592L35.246,78.592z M96.373,81.541
			c-0.813,0.813-2.135,0.813-2.947,0c-0.813-0.815-0.813-2.134,0-2.948l14.186-14.184L93.426,50.224
			c-0.813-0.814-0.813-2.134,0-2.948c0.813-0.814,2.136-0.814,2.947,0l15.657,15.658c0.813,0.814,0.813,2.134,0,2.948L96.373,81.541
			L96.373,81.541z"/>
	</g>
</g>
<g id="Layer_2" display="none">
	<g display="inline">
		<g>
			<g>
				
					<linearGradient id="SVGID_2_" gradientUnits="userSpaceOnUse" x1="-71.2371" y1="-245.7974" x2="-178.4825" y2="-353.0428" gradientTransform="matrix(1 0 0 -1 194 -240.7617)">
					<stop  offset="0" style="stop-color:#4B28DB"/>
					<stop  offset="1" style="stop-color:#3552FF"/>
				</linearGradient>
				<path fill="url(#SVGID_2_)" d="M17.617,82.592c-0.566,0-1.133-0.217-1.563-0.647l-4.641-4.633
					c-2.605-2.604-2.605-6.847-0.004-9.451l51.813-51.865c1.553-1.561,3.775-2.252,5.939-1.85l33.773,6.233
					c2.771,0.512,4.938,2.728,5.388,5.515l5.274,32.958c0.338,2.109-0.358,4.27-1.871,5.781L94.437,81.94
					c-0.862,0.867-2.266,0.861-3.127,0.002c-0.865-0.862-0.865-2.266,0-3.127l17.293-17.313c0.51-0.512,0.746-1.243,0.633-1.956
					L103.96,26.59c-0.148-0.942-0.883-1.693-1.82-1.866L68.36,18.492c-0.733-0.134-1.481,0.098-2.01,0.625L14.539,70.983
					c-0.879,0.882-0.879,2.314,0.002,3.197l4.641,4.633c0.862,0.861,0.862,2.265,0.002,3.127
					C18.75,82.375,18.183,82.592,17.617,82.592z"/>
			</g>
			<g>
				
					<linearGradient id="SVGID_3_" gradientUnits="userSpaceOnUse" x1="-70.9197" y1="-246.1133" x2="-178.1715" y2="-353.3652" gradientTransform="matrix(1 0 0 -1 194 -240.7617)">
					<stop  offset="0" style="stop-color:#4B28DB"/>
					<stop  offset="1" style="stop-color:#3552FF"/>
				</linearGradient>
				<path fill="url(#SVGID_3_)" d="M89.682,47.739c-3.249,0-5.917-1.702-7.409-3.869c-2.063-2.998-2.491-7.779,1.205-11.702
					c0.588-0.63,1.326-1.136,2.125-1.463c4.975-2.054,9.294,0.054,11.358,3.053c2.063,2.998,2.492,7.778-1.205,11.701
					c-0.59,0.627-1.322,1.133-2.123,1.462v0.001C92.254,47.489,90.926,47.739,89.682,47.739z M89.578,34.305
					c-0.696,0-1.465,0.147-2.294,0.489c-0.22,0.09-0.427,0.232-0.589,0.404c-2.141,2.271-1.807,4.674-0.78,6.163
					c1.022,1.487,3.146,2.661,6.034,1.469c0.217-0.088,0.43-0.236,0.588-0.404c2.143-2.272,1.809-4.672,0.78-6.163
					C92.588,35.204,91.301,34.305,89.578,34.305z"/>
			</g>
			<g>
				
					<linearGradient id="SVGID_4_" gradientUnits="userSpaceOnUse" x1="-65.9587" y1="-251.0806" x2="-173.2017" y2="-358.3235" gradientTransform="matrix(1 0 0 -1 194 -240.7617)">
					<stop  offset="0" style="stop-color:#4B28DB"/>
					<stop  offset="1" style="stop-color:#3552FF"/>
				</linearGradient>
				<path fill="url(#SVGID_4_)" d="M55.284,120.219c-0.586,0-1.146-0.231-1.563-0.646l-26.598-26.57
					c-0.633-0.633-0.823-1.584-0.479-2.41c0.341-0.828,1.147-1.367,2.043-1.367h14.408V58.123c0-1.221,0.987-2.211,2.211-2.211
					H65.21c1.225,0,2.211,0.99,2.211,2.211v31.103l14.408-0.002c0.896,0,1.698,0.539,2.043,1.364
					c0.344,0.826,0.151,1.777-0.479,2.41l-26.544,26.569c-0.413,0.416-0.978,0.648-1.563,0.648
					C55.284,120.219,55.284,120.219,55.284,120.219z M34.03,93.647l21.253,21.229l21.211-21.23L65.21,93.647
					c-0.588,0-1.146-0.233-1.563-0.647C63.232,92.584,63,92.021,63,91.437V60.334H47.518v31.103c0,1.225-0.989,2.213-2.211,2.213
					H34.03V93.647z"/>
			</g>
		</g>
	</g>
</g>
<g id="Layer_3" display="none">
	<g transform="matrix( 1, 0, 0, 1, 0,0) " display="inline">
		<g>
			<g>
				
					<linearGradient id="SVGID_5_" gradientUnits="userSpaceOnUse" x1="-187.7957" y1="-354.6294" x2="-71.4663" y2="-238.3" gradientTransform="matrix(1 0 0 -1 194 -240.7617)">
					<stop  offset="0" style="stop-color:#4B28DB"/>
					<stop  offset="1" style="stop-color:#3552FF"/>
				</linearGradient>
				<path fill="url(#SVGID_5_)" d="M83.06,115.067H32.343c-0.173,0-0.344-0.022-0.511-0.065c-9.826-2.597-14.274-5.424-14.429-9.168
					l-0.002-0.401V28.351c0.067-1.774,0.556-3.331,1.446-4.706c0.126-0.201,0.279-0.483,0.45-0.789
					c0.951-1.708,2.256-4.046,4.489-4.354c0.091-0.012,0.184-0.019,0.272-0.019h59.879c1.104,0,2,0.896,2,2v5.102l5.653,4.865h4.161
					c1.104,0,2,0.896,2,2V56.7c0,1.104-0.896,2-2,2c-1.104,0-2-0.896-2-2V34.45H33.146c-0.133,0-0.267-0.013-0.396-0.04
					c-5.429-1.094-8.611-2.595-10.023-4.726c-0.71-1.07-0.955-2.295-0.71-3.544c-0.386,0.701-0.582,1.448-0.615,2.289l0.002,77.324
					c0.002,0.02,0.224,2.379,11.201,5.314H83.06c1.104,0,2,0.895,2,2C85.06,114.172,84.164,115.067,83.06,115.067z M33.348,30.45
					h52.114L83.2,28.503H27.323C28.36,29.088,30.176,29.797,33.348,30.45z M24.369,22.484c-0.474,0.342-1.237,1.715-1.574,2.32
					c-0.028,0.054-0.062,0.107-0.09,0.16c0.352-0.29,0.797-0.461,1.276-0.461h57.96v-2.019H24.369z M33.146,107.672
					c-1.104,0-2-0.896-2-2V41.05c0-1.104,0.896-2,2-2c1.104,0,2,0.896,2,2v64.622C35.146,106.774,34.251,107.672,33.146,107.672z"/>
			</g>
		</g>
	</g>
	<g display="inline">
		<g>
			
				<linearGradient id="SVGID_6_" gradientUnits="userSpaceOnUse" x1="-159.3782" y1="-383.0469" x2="-43.0463" y2="-266.7151" gradientTransform="matrix(1 0 0 -1 194 -240.7617)">
				<stop  offset="0" style="stop-color:#4B28DB"/>
				<stop  offset="1" style="stop-color:#3552FF"/>
			</linearGradient>
			<path fill="url(#SVGID_6_)" d="M65.934,65.5c0.414-0.414,0.978-0.648,1.563-0.648l37.596-0.019c0.896,0,1.701,0.539,2.045,1.365
				s0.151,1.779-0.479,2.41L96.469,78.797l21.991,21.992c0.863,0.862,0.864,2.265,0,3.129l-14.072,14.074
				c-0.864,0.862-2.266,0.862-3.129-0.002L79.268,96L69.08,106.188c-0.632,0.633-1.583,0.817-2.409,0.479
				c-0.825-0.339-1.363-1.148-1.362-2.043l-0.021-37.559c-0.002-0.584,0.229-1.148,0.646-1.563C65.934,65.5,65.934,65.5,65.934,65.5
				z M99.75,69.259l-30.039,0.016l0.017,30.013l7.979-7.979c0.415-0.414,0.979-0.646,1.563-0.646s1.146,0.229,1.563,0.646
				l21.993,21.993l10.945-10.946L91.777,80.36c-0.862-0.863-0.864-2.264,0-3.129L99.75,69.259z"/>
		</g>
	</g>
</g>
<g id="Layer_4" display="none">
	<g display="inline">
		
			<linearGradient id="SVGID_7_" gradientUnits="userSpaceOnUse" x1="-176.1257" y1="-305.2905" x2="-78.0833" y2="-305.2905" gradientTransform="matrix(1 0 0 -1 194 -240.7617)">
			<stop  offset="0" style="stop-color:#4B28DB"/>
			<stop  offset="1" style="stop-color:#3552FF"/>
		</linearGradient>
		<path fill="url(#SVGID_7_)" d="M65.247,104.87c-5.104-5.104-8.172-11.879-8.637-19.075c-0.082-1.286,0.894-2.394,2.179-2.478
			c1.285-0.082,2.396,0.893,2.479,2.179c0.391,6.063,2.976,11.772,7.275,16.076c9.757,9.757,25.638,9.757,35.395-0.001
			c9.758-9.758,9.758-25.635,0-35.392C93.789,56.032,81.803,56.101,68.31,66.384l-0.029,0.022c-7.37,5.44-14.737,8.231-21.895,8.296
			c-7.333,0.063-14.19-2.885-19.83-8.524c-11.576-11.577-11.576-30.414,0-41.989c11.575-11.577,30.412-11.577,41.988-0.001
			c4.208,4.208,7.025,9.508,8.153,15.327c0.243,1.265-0.583,2.488-1.848,2.733c-1.267,0.246-2.488-0.583-2.732-1.846
			c-0.948-4.903-3.326-9.368-6.873-12.914c-9.759-9.757-25.635-9.757-35.393-0.001c-9.757,9.759-9.757,25.636,0,35.392
			c9.679,9.679,22.335,9.604,35.644-0.215c7.691-5.859,15.202-8.788,22.318-8.705c7.05,0.082,13.583,3.083,19.421,8.922
			c11.576,11.576,11.576,30.414,0,41.989C95.661,116.444,76.823,116.446,65.247,104.87z"/>
	</g>
</g>
<g id="Layer_5" display="none">
	<g display="inline">
		
			<linearGradient id="SVGID_8_" gradientUnits="userSpaceOnUse" x1="-167.1838" y1="-312.9688" x2="-91.0481" y2="-312.9688" gradientTransform="matrix(1 0 0 -1 194 -240.7617)">
			<stop  offset="0" style="stop-color:#4B28DB"/>
			<stop  offset="1" style="stop-color:#3552FF"/>
		</linearGradient>
		<path fill="url(#SVGID_8_)" d="M101.352,15.373H28.417c-0.884,0-1.601,0.715-1.601,1.6v92.447c0,0.884,0.717,1.601,1.601,1.601
			h43.425v16.422c0,0.709,0.47,1.334,1.146,1.533c0.682,0.199,1.414-0.068,1.799-0.668l4.84-7.511l4.84,7.511
			c0.303,0.465,0.813,0.732,1.346,0.732c0.148,0,0.302-0.021,0.451-0.064c0.681-0.199,1.146-0.824,1.146-1.533v-16.422h13.941
			c0.884,0,1.601-0.719,1.601-1.602V16.972C102.951,16.088,102.235,15.373,101.352,15.373z M79.626,100.677
			c-6.112,0-11.091-4.976-11.091-11.091c0-6.114,4.979-11.089,11.091-11.089c6.114,0,11.089,4.975,11.089,11.089
			C90.715,95.701,85.74,100.677,79.626,100.677z M80.97,116.976c-0.296-0.455-0.802-0.729-1.346-0.729s-1.051,0.273-1.346,0.729
			l-3.239,5.029v-18.889c1.438,0.488,2.979,0.759,4.585,0.759c1.604,0,3.146-0.271,4.584-0.759v18.889L80.97,116.976z
			 M99.752,107.819H87.409v-6.26c3.911-2.556,6.505-6.968,6.505-11.977c0-7.878-6.41-14.288-14.288-14.288
			c-7.88,0-14.289,6.41-14.289,14.288c0,5.009,2.595,9.421,6.505,11.977v6.26H30.016V18.571h69.734L99.752,107.819L99.752,107.819z"
			/>
		
			<linearGradient id="SVGID_9_" gradientUnits="userSpaceOnUse" x1="-159.2942" y1="-303.7979" x2="-98.9368" y2="-303.7979" gradientTransform="matrix(1 0 0 -1 194 -240.7617)">
			<stop  offset="0" style="stop-color:#4B28DB"/>
			<stop  offset="1" style="stop-color:#3552FF"/>
		</linearGradient>
		<path fill="url(#SVGID_9_)" d="M36.307,102.703h21.219c0.885,0,1.6-0.718,1.6-1.601c0-0.887-0.715-1.603-1.6-1.603h-19.62V26.568
			H91.86V69.67c0,0.884,0.717,1.599,1.602,1.599c0.886,0,1.602-0.715,1.602-1.599V24.969c0-0.883-0.716-1.6-1.602-1.6H36.307
			c-0.885,0-1.602,0.717-1.602,1.6v76.134C34.708,101.985,35.424,102.703,36.307,102.703z"/>
		
			<linearGradient id="SVGID_10_" gradientUnits="userSpaceOnUse" x1="-140.0999" y1="-275.9668" x2="-118.1311" y2="-275.9668" gradientTransform="matrix(1 0 0 -1 194 -240.7617)">
			<stop  offset="0" style="stop-color:#4B28DB"/>
			<stop  offset="1" style="stop-color:#3552FF"/>
		</linearGradient>
		<path fill="url(#SVGID_10_)" d="M74.268,36.804c0.883,0,1.601-0.715,1.601-1.598c0-0.884-0.718-1.6-1.601-1.6H55.5
			c-0.884,0-1.6,0.715-1.6,1.6c0,0.883,0.716,1.598,1.6,1.598H74.268z"/>
		
			<linearGradient id="SVGID_11_" gradientUnits="userSpaceOnUse" x1="-151.0833" y1="-287.0562" x2="-107.1497" y2="-287.0562" gradientTransform="matrix(1 0 0 -1 194 -240.7617)">
			<stop  offset="0" style="stop-color:#4B28DB"/>
			<stop  offset="1" style="stop-color:#3552FF"/>
		</linearGradient>
		<path fill="url(#SVGID_11_)" d="M85.251,44.695H44.518c-0.885,0-1.602,0.716-1.602,1.599s0.716,1.6,1.602,1.6H85.25
			c0.883,0,1.601-0.717,1.601-1.6S86.134,44.695,85.251,44.695z"/>
		
			<linearGradient id="SVGID_12_" gradientUnits="userSpaceOnUse" x1="-151.0833" y1="-330.3477" x2="-135.2991" y2="-330.3477" gradientTransform="matrix(1 0 0 -1 194 -240.7617)">
			<stop  offset="0" style="stop-color:#4B28DB"/>
			<stop  offset="1" style="stop-color:#3552FF"/>
		</linearGradient>
		<path fill="url(#SVGID_12_)" d="M44.518,87.985c-0.885,0-1.602,0.717-1.602,1.601c0,0.886,0.716,1.601,1.602,1.601h12.583
			c0.884,0,1.6-0.715,1.6-1.601c0-0.884-0.716-1.601-1.6-1.601H44.518z"/>
	</g>
</g>
<g>
	<linearGradient id="SVGID_13_" gradientUnits="userSpaceOnUse" x1="22.5579" y1="51.3936" x2="116.5691" y2="51.3936">
		<stop  offset="0" style="stop-color:#00B4B8"/>
		<stop  offset="1" style="stop-color:#12A989"/>
	</linearGradient>
	<path fill="url(#SVGID_13_)" d="M94.243,95.92c-1.242,0-2.481-0.325-3.582-0.979L69.563,82.506l-11.416,6.716l-2.439-4.147
		l13.856-8.151L93.111,90.8c0.771,0.458,1.748,0.409,2.498-0.118c0.682-0.503,1.022-1.382,0.827-2.213L90.334,62.02l20.671-17.872
		c0.665-0.57,0.915-1.467,0.646-2.293c-0.265-0.807-1.039-1.412-1.927-1.495l-27.304-2.43L71.619,13.004
		c-0.354-0.799-1.161-1.326-2.054-1.326s-1.703,0.527-2.063,1.341L56.707,37.93L29.39,40.361c-0.873,0.083-1.648,0.687-1.916,1.5
		c-0.266,0.82-0.014,1.717,0.642,2.28l6.794,5.852l-3.14,3.646l-6.789-5.848c-2.131-1.827-2.951-4.742-2.081-7.422
		c0.87-2.652,3.244-4.533,6.05-4.8l24.48-2.178l9.664-22.301c1.137-2.572,3.673-4.224,6.471-4.224c2.796,0,5.333,1.653,6.461,4.209
		l9.671,22.315l24.468,2.177c2.818,0.268,5.192,2.148,6.061,4.793c0.872,2.687,0.055,5.602-2.082,7.433L95.673,63.764l5.448,23.612
		c0.638,2.702-0.423,5.538-2.704,7.212C97.158,95.475,95.697,95.92,94.243,95.92z"/>
	<linearGradient id="SVGID_14_" gradientUnits="userSpaceOnUse" x1="89.9392" y1="21.6621" x2="101.2224" y2="21.6621">
		<stop  offset="0" style="stop-color:#00B4B8"/>
		<stop  offset="1" style="stop-color:#12A989"/>
	</linearGradient>
	<polygon fill="url(#SVGID_14_)" points="93.788,28.061 89.939,25.174 97.374,15.263 101.222,18.15 	"/>
	<linearGradient id="SVGID_15_" gradientUnits="userSpaceOnUse" x1="12.6487" y1="104.7021" x2="76.9265" y2="104.7021">
		<stop  offset="0" style="stop-color:#00B4B8"/>
		<stop  offset="1" style="stop-color:#12A989"/>
	</linearGradient>
	<path fill="url(#SVGID_15_)" d="M76.927,125.727h-4.812V98.472c0-4.713-11.688-9.983-27.327-9.983
		c-15.642,0-27.328,5.271-27.328,9.983v27.255h-4.812V98.472c0-8.435,13.816-14.795,32.139-14.795
		c18.322,0,32.139,6.36,32.139,14.795V125.727z"/>
	<linearGradient id="SVGID_16_" gradientUnits="userSpaceOnUse" x1="62.2034" y1="118.2939" x2="67.0144" y2="118.2939">
		<stop  offset="0" style="stop-color:#00B4B8"/>
		<stop  offset="1" style="stop-color:#12A989"/>
	</linearGradient>
	<rect x="62.203" y="110.86" fill="url(#SVGID_16_)" width="4.811" height="14.866"/>
	<linearGradient id="SVGID_17_" gradientUnits="userSpaceOnUse" x1="22.5588" y1="118.2939" x2="27.3699" y2="118.2939">
		<stop  offset="0" style="stop-color:#00B4B8"/>
		<stop  offset="1" style="stop-color:#12A989"/>
	</linearGradient>
	<rect x="22.559" y="110.86" fill="url(#SVGID_17_)" width="4.811" height="14.866"/>
	<linearGradient id="SVGID_18_" gradientUnits="userSpaceOnUse" x1="27.5144" y1="61.3052" x2="62.0588" y2="61.3052">
		<stop  offset="0" style="stop-color:#00B4B8"/>
		<stop  offset="1" style="stop-color:#12A989"/>
	</linearGradient>
	<path fill="url(#SVGID_18_)" d="M44.788,78.577c-9.525,0-17.273-7.748-17.273-17.272c0-9.523,7.749-17.272,17.273-17.272
		c9.522,0,17.271,7.749,17.271,17.272C62.059,70.829,54.31,78.577,44.788,78.577z M44.788,48.844
		c-6.871,0-12.462,5.59-12.462,12.461s5.591,12.461,12.462,12.461c6.87,0,12.46-5.591,12.46-12.461S51.657,48.844,44.788,48.844z"/>
	<linearGradient id="SVGID_19_" gradientUnits="userSpaceOnUse" x1="37.9075" y1="21.6621" x2="49.1892" y2="21.6621">
		<stop  offset="0" style="stop-color:#00B4B8"/>
		<stop  offset="1" style="stop-color:#12A989"/>
	</linearGradient>
	<polygon fill="url(#SVGID_19_)" points="45.34,28.061 37.907,18.15 41.756,15.263 49.189,25.174 	"/>
	<linearGradient id="SVGID_20_" gradientUnits="userSpaceOnUse" x1="103.1775" y1="68.7393" x2="115.239" y2="68.7393">
		<stop  offset="0" style="stop-color:#00B4B8"/>
		<stop  offset="1" style="stop-color:#12A989"/>
	</linearGradient>
	<polygon fill="url(#SVGID_20_)" points="113.087,73.368 103.177,68.413 105.329,64.109 115.239,69.064 	"/>
</g>
</svg>
